inDegrees=yes
name=ik_lifting_orientations
DataType=double
version=3
OpenSimVersion=4.5-2024-01-10-34fd6af
endheader
time	pelvis_tilt	pelvis_list	pelvis_rotation	pelvis_tx	pelvis_ty	pelvis_tz	hip_flexion_r	hip_adduction_r	hip_rotation_r	knee_angle_r	knee_angle_r_beta	ankle_angle_r	subtalar_angle_r	mtp_angle_r	hip_flexion_l	hip_adduction_l	hip_rotation_l	knee_angle_l	knee_angle_l_beta	ankle_angle_l	subtalar_angle_l	mtp_angle_l	lumbar_extension	lumbar_bending	lumbar_rotation	arm_flex_r	arm_add_r	arm_rot_r	elbow_flex_r	pro_sup_r	wrist_flex_r	wrist_dev_r	arm_flex_l	arm_add_l	arm_rot_l	elbow_flex_l	pro_sup_l	wrist_flex_l	wrist_dev_l
0.55	0.0008540538050699502	0.0003641650876600607	2.434472489794971	0	0.9399999999999999	0	44.06038022143348	-10.01954909112498	0	59.96249769076536	1.046543012423352	-5.003051188341932	0	0	44.06038022143348	-10.01954909112498	0	59.96249769076536	1.046543012423352	-5.003051188341932	0	0	0.01048627998874042	0.001295985217790729	-0.0006487687675019369	-0.2659451470607934	-0.4461351156563108	-0.4018058341926295	0.3479132845698075	45.01190645608622	0	0	0	-12.60842248357007	0	75.08425370699891	45.01190645608622	0	0
0.5600000000000001	0.01265317850708601	0.005620432724050463	2.433999588203752	0	0.9399999999999999	0	44.06047209372314	-10.01954237925469	0	59.9625005658235	1.046543062602583	-5.003049820618266	0	0	44.06047209372314	-10.01954237925469	0	59.9625005658235	1.046543062602583	-5.003049820618266	0	0	0.01066548851957761	0.004108057084234872	-0.000535367574130793	-0.2793955014839172	-0.4478416569470455	-0.4029595545261142	0.3535533065731558	45.01190322520311	0	0	0	-12.6085418414795	0	75.08424548751825	45.01190322520311	0	0
0.59	-0.004290516125596847	0.02090557301791557	2.424878897590047	0	0.9399999999999999	0	44.06098627706017	-10.01950499935579	0	59.96251669901064	1.046543344179817	-5.003042213905537	0	0	44.06098627706017	-10.01950499935579	0	59.96251669901064	1.046543344179817	-5.003042213905537	0	0	0.02566012524295616	-0.03316868890995662	0.01831931820788153	0.1041954582058902	-0.9749333459408671	-0.1359519241919049	1.304127632957734	45.01188521212975	0	0	0	-12.60921122531085	0	75.08419948534878	45.01188521212975	0	0
0.61	0.007760780724158841	0.004887683434357146	2.43285997300304	0	0.9399999999999999	0	44.08024454750624	-10.01824692782838	0	59.96312610370633	1.046553980298234	-5.002796838205504	0	0	44.08024454750624	-10.01824692782838	0	59.96312610370633	1.046553980298234	-5.002796838205504	0	0	-0.001897544112271597	9.623440607412477e-05	-0.002255538364605494	0.1358461129290708	-0.9879085449289363	-0.1282880687668958	1.279359623275792	45.01126033077345	0	0	0	-12.63483232796261	0	75.08247647991038	45.01126033077345	0	0
0.62	-0.0003463283573746	0.0003489112294644621	2.433577125711623	0	0.9399999999999999	0	44.09811210088179	-10.01712509942064	0	59.96369336528749	1.046563880880546	-5.002581305818651	0	0	44.09811210088179	-10.01712509942064	0	59.96369336528749	1.046563880880546	-5.002581305818651	0	0	2.657540503741741e-05	6.343009821861615e-05	0.0001055525051670547	0.1361480249613002	-0.9826371498342363	-0.1276774893228308	1.297961956576833	45.01069698814113	0	0	0	-12.65880566522844	0	75.08087788790539	45.01069698814113	0	0
0.63	0.02316320381454784	0.008328925169349419	2.439894411292528	0	0.9399999999999999	0	44.10479333659382	-10.01682732540296	0	59.96396400024664	1.046568604351654	-5.002527944570425	0	0	44.10479333659382	-10.01682732540296	0	59.96396400024664	1.046568604351654	-5.002527944570425	0	0	-0.03343601918866753	-0.008001120949270291	-0.004868173106733313	0.2469336689630681	-1.177501035625376	-0.2761866933789317	2.737182097283539	45.01053763915747	0	0	0	-12.66943524101325	0	75.08028008057821	45.01053763915747	0	0
0.64	-0.0002054361444159255	-8.064781540694324e-05	2.43437439820504	0	0.9399999999999999	0	44.12462991486332	-10.01567616236264	0	59.96459808425573	1.046579671205347	-5.002313100380821	0	0	44.12462991486332	-10.01567616236264	0	59.96459808425573	1.046579671205347	-5.002313100380821	0	0	-0.0003475533962534632	0.000101872389267895	-0.0001883982391730927	0.2323203623096042	-1.17610280247742	-0.275282615802134	2.744520505981718	45.00994711604548	0	0	0	-12.69653340401805	0	75.07850529592564	45.00994711604548	0	0
0.66	0.008580034377912422	0.0002393270286670231	2.432069722560889	0	0.9399999999999999	0	44.13032223914759	-10.01543581128203	0	59.96482928135708	1.046583706355986	-5.002270881686672	0	0	44.13032223914759	-10.01543581128203	0	59.96482928135708	1.046583706355986	-5.002270881686672	0	0	-0.01280776677014104	0.001272205136994907	0.002358109180614236	0.1958206471537761	-0.9662941522552713	0.04688706252344192	3.787985468490664	45.00981659391189	0	0	0	-12.70569949700442	0	75.07799596895335	45.00981659391189	0	0
0.67	0.002183569407776646	0.002129420772227166	2.438100876644338	0	0.9399999999999999	0	44.13048773692394	-10.01542551612271	0	59.96483454012655	1.046583798138828	-5.002268904734585	0	0	44.13048773692394	-10.01542551612271	0	59.96483454012655	1.046583798138828	-5.002268904734585	0	0	-0.02600003028357806	-0.009400629648771235	-0.0048258836396478	0.2634171542400792	-1.006326321817124	-0.02211669976103727	4.548308363017868	45.00981141774372	0	0	0	-12.7059226361902	0	75.07798116199193	45.00981141774372	0	0
0.6899999999999999	0.01300667729700678	0.006132148932380285	2.435766794996959	0	0.9399999999999999	0	44.13071475917254	-10.01541139588794	0	59.96484175258001	1.046583924019888	-5.002266193621018	0	0	44.13071475917254	-10.01541139588794	0	59.96484175258001	1.046583924019888	-5.002266193621018	0	0	-0.02460327918663806	-0.007294985723871038	-0.003225681505496054	0.260778816609586	-1.163143468739654	-0.1043815157367409	5.299088502033711	45.00980431787173	0	0	0	-12.7062287106022	0	75.07796085048194	45.00980431787173	0	0
0.71	0.003909814039341524	0.002370650244102509	2.438272560780888	0	0.9399999999999999	0	44.13088223824831	-10.01540099229213	0	59.96484707617469	1.046584016934143	-5.002264196913751	0	0	44.13088223824831	-10.01540099229213	0	59.96484707617469	1.046584016934143	-5.002264196913751	0	0	-0.02891646015194048	-0.01075924997570427	-0.005889419255806135	0.3192524772786147	-1.204890402398088	-0.1769229487306766	6.074978116246423	45.00979908519528	0	0	0	-12.70645461159801	0	75.07794586625138	45.00979908519528	0	0
0.72	0.008452043736833911	0.002324865548966188	2.434376162007072	0	0.9399999999999999	0	44.13791857388222	-10.01510721116463	0	59.96513290729622	1.046589005628319	-5.002212795355809	0	0	44.13791857388222	-10.01510721116463	0	59.96513290729622	1.046589005628319	-5.002212795355809	0	0	-0.01334668423827298	-0.001175306488806121	-0.001786430662739819	0.3218604649369634	-1.411626656015224	-0.3444975201502286	7.650025267381374	45.00963908302163	0	0	0	-12.71781884805601	0	75.07731628152069	45.00963908302163	0	0
0.73	-0.02122094306017955	-0.01624718899952995	2.439025024987195	0	0.9399999999999999	0	44.1398601935662	-10.01500025628194	0	59.96519568144476	1.046590101243896	-5.002193163509472	0	0	44.1398601935662	-10.01500025628194	0	59.96519568144476	1.046590101243896	-5.002193163509472	0	0	0.02683674486828131	0.01449007363013408	-0.003706942274948681	0.2767422359206986	-1.413496699944902	-0.3549178865837358	7.72800560206147	45.00958351343399	0	0	0	-12.72051545536478	0	75.07714256255103	45.00958351343399	0	0
0.74	0.009994906673953991	0.003141977930545325	2.435682468690168	0	0.9399999999999999	0	44.14009088051299	-10.01498615972918	0	59.96520301816933	1.046590229293896	-5.002190473381146	0	0	44.14009088051299	-10.01498615972918	0	59.96520301816933	1.046590229293896	-5.002190473381146	0	0	-0.01943505049164347	-0.004618566391812401	-0.002813256166240363	0.3413328821116566	-1.461154402323604	-0.425283619320394	8.492465976563841	45.00957639316874	0	0	0	-12.72082797201102	0	75.07712192308492	45.00957639316874	0	0
0.76	0.004961743360560955	-0.0008244999495937504	2.435328437559323	0	0.9399999999999999	0	44.14607899988518	-10.01473822479017	0	59.96544566024711	1.046594464197057	-5.002147229857822	0	0	44.14607899988518	-10.01473822479017	0	59.96544566024711	1.046594464197057	-5.002147229857822	0	0	-0.005756917876344016	0.0003477541915464974	-0.001390529331033658	0.472925999180855	-2.077492465397563	-0.2185871583873334	9.963758825911095	45.00944105067897	0	0	0	-12.73051668792086	0	75.0765861283616	45.00944105067897	0	0
